#!OML:ASF E:\acrobat2\Project_11_07_03\Capture day 1\Session 1\Acrobat.ASF
:FULLY-SPECIFIED
:DEGREES
196
root 8.36957 17.956 -27.8881 23.7044 -86.2069 -17.4699
lowerback -7.59532 1.0007 1.72136
upperback -5.11704 1.07573 -0.531175
thorax -0.984384 0.424222 -1.44031
lowerneck -0.836138 -0.444778 -1.1515
upperneck 1.65629 -0.657938 3.84583
head 0.667265 -0.311329 1.37423
rclavicle -2.70844e-015 3.37934e-015
rhumerus -6.33277 -26.9314 -2.72661
rradius 20.4333
rwrist 19.3058
rhand -6.11476 -45.6828
rfingers 7.12502
rthumb 19.722 -74.7023
lclavicle -2.70844e-015 3.37934e-015
lhumerus 2.14734 13.4763 -0.571064
lradius 20.8231
lwrist 8.70356
lhand -9.29742 -5.469
lfingers 7.12502
lthumb 16.6601 23.836
rfemur 7.61173 17.2842 14.1161
rtibia -3.03083
rfoot -28.6603 -30.7586
rtoes 5.65393
lfemur 6.46607 -11.829 -5.32078
ltibia -3.51159
lfoot -30.3534 5.45958
ltoes 42.3954
197
root 8.37119 17.9532 -27.8912 23.5126 -86.3069 -17.2183
lowerback -7.62797 1.02018 1.6465
upperback -5.14501 1.10387 -0.551146
thorax -0.995205 0.438767 -1.41676
lowerneck -0.792523 -0.338787 -1.15293
upperneck 1.632 -0.517625 3.92547
head 0.649143 -0.241511 1.4008
rclavicle -2.55935e-015 1.98785e-016
rhumerus -6.30017 -27.0783 -2.84068
rradius 20.4531
rwrist 19.4386
rhand -6.17783 -45.527
rfingers 7.12502
rthumb 19.6614 -74.5527
lclavicle -2.55935e-015 1.98785e-016
lhumerus 2.28514 14.0826 -0.467568
lradius 20.6758
lwrist 8.03296
lhand -9.24876 -5.4981
lfingers 7.12502
lthumb 16.707 23.803
rfemur 7.47434 17.1367 13.9988
rtibia -2.97904
rfoot -28.3812 -30.6429
rtoes 5.33967
lfemur 6.40864 -11.6271 -5.32495
ltibia -3.48912
lfoot -30.3189 5.45012
ltoes 42.2955
198
root 8.37498 17.9555 -27.8926 22.6218 -86.2711 -16.3802
lowerback -7.54873 0.974697 1.62055
upperback -5.12747 1.04773 -0.573538
thorax -1.02278 0.411491 -1.42998
lowerneck -0.793559 -0.196172 -1.0587
upperneck 1.6234 -0.328321 3.91654
head 0.641069 -0.146584 1.3831
rclavicle -1.98039e-014 7.35503e-015
rhumerus -6.17714 -27.1548 -2.97242
rradius 20.4382
rwrist 19.5046
rhand -6.17327 -45.4699
rfingers 7.12502
rthumb 19.6658 -74.4952
lclavicle -1.98039e-014 7.35503e-015
lhumerus 2.2376 14.2635 -0.518764
lradius 20.6665
lwrist 7.88091
lhand -9.19833 -5.56537
lfingers 7.12502
lthumb 16.7555 23.7316
rfemur 7.52248 17.027 13.9278
rtibia -2.99658
rfoot -28.1085 -30.6409
rtoes 5.39056
lfemur 6.41828 -11.7257 -5.38484
ltibia -3.45888
lfoot -30.318 5.4972
ltoes 42.1329
199
root 8.37841 17.9579 -27.8931 21.3085 -86.2735 -15.142
lowerback -7.50442 0.931197 1.51976
upperback -5.07656 0.998931 -0.557301
thorax -0.99801 0.391427 -1.36011
lowerneck -0.785754 -0.0218716 -0.961609
upperneck 1.59187 -0.0924391 3.76856
head 0.622837 -0.0292029 1.32109
rclavicle 8.17502e-015 -3.77691e-015
rhumerus -5.98431 -27.1468 -3.05001
rradius 20.4299
rwrist 19.4742
rhand -6.11394 -45.4448
rfingers 7.12502
rthumb 19.7228 -74.4643
lclavicle 8.17502e-015 -3.77691e-015
lhumerus 2.03525 14.6954 -0.473676
lradius 20.7691
lwrist 7.46989
lhand -9.06665 -5.66862
lfingers 7.12502
lthumb 16.8823 23.6176
rfemur 7.59668 16.9314 13.8222
rtibia -3.01026
rfoot -27.8561 -30.6355
rtoes 5.33321
lfemur 6.51324 -12.1207 -5.56757
ltibia -3.47808
lfoot -30.6988 5.4001
ltoes 42.5569
200
root 8.38025 17.9581 -27.8941 21.3562 -86.3158 -15.2054
lowerback -7.56914 0.94544 1.42565
upperback -5.02078 1.02404 -0.499719
thorax -0.906117 0.408959 -1.24506
lowerneck -0.718943 0.141507 -0.895877
upperneck 1.49539 0.132605 3.56518
head 0.575469 0.0813074 1.24653
rclavicle 1.61513e-015 4.57205e-015
rhumerus -5.91251 -26.9793 -2.98294
rradius 20.4818
rwrist 19.2954
rhand -6.01653 -45.4889
rfingers 7.12502
rthumb 19.8165 -74.4987
lclavicle 1.61513e-015 4.57205e-015
lhumerus 2.26956 15.6692 -0.203047
lradius 20.4882
lwrist 6.41194
lhand -8.76668 -5.79669
lfingers 7.12502
lthumb 17.171 23.4646
rfemur 7.56945 16.8298 13.7812
rtibia -2.97704
rfoot -27.7675 -30.5807
rtoes 4.60558
lfemur 6.57579 -12.4813 -5.66372
ltibia -3.48732
lfoot -31.1714 5.62814
ltoes 42.3595
201
root 8.38242 17.9576 -27.8969 22.3232 -86.3208 -16.1688
lowerback -7.62133 0.972597 1.37971
upperback -4.98205 1.06319 -0.436892
thorax -0.83787 0.43182 -1.15093
lowerneck -0.678277 0.256817 -0.824259
upperneck 1.4568 0.290065 3.4122
head 0.552709 0.15904 1.18679
rclavicle 1.19271e-015 0
rhumerus -5.92102 -26.8406 -2.89382
rradius 20.5346
rwrist 19.163
rhand -5.98179 -45.5877
rfingers 7.12502
rthumb 19.8499 -74.5941
lclavicle 1.19271e-015 0
lhumerus 1.43788 10.384 -1.38805
lradius 21.4661
lwrist 11.6669
lhand -9.2418 -5.10206
lfingers 7.12502
lthumb 16.7137 24.1984
rfemur 7.52493 16.6939 13.8123
rtibia -2.96072
rfoot -27.7926 -30.4031
rtoes 4.41385
lfemur 6.55573 -12.4736 -5.58546
ltibia -3.44606
lfoot -31.1083 6.01889
ltoes 41.4894
202
root 8.38555 17.957 -27.899 23.1306 -86.362 -16.9895
lowerback -7.6068 1.01397 1.38198
upperback -4.96619 1.11903 -0.42057
thorax -0.828038 0.460492 -1.13166
lowerneck -0.762436 0.414305 -0.75612
upperneck 1.55102 0.496567 3.40886
head 0.59122 0.264122 1.17629
rclavicle -7.70291e-016 -7.7526e-015
rhumerus -5.8958 -27.2595 -2.90516
rradius 20.4708
rwrist 19.5689
rhand -5.97632 -45.5185
rfingers 7.12502
rthumb 19.8551 -74.5243
lclavicle -7.70291e-016 -7.7526e-015
lhumerus 1.58391 10.8841 -1.23982
lradius 21.3755
lwrist 11.1024
lhand -9.05736 -5.19258
lfingers 7.12502
lthumb 16.8912 24.0928
rfemur 7.47345 16.4398 13.7804
rtibia -2.95085
rfoot -27.616 -30.1338
rtoes 4.50963
lfemur 6.56674 -12.3906 -5.51609
ltibia -3.45279
lfoot -31.0047 5.91362
ltoes 41.71
